<mxfile host="app.diagrams.net" agent="Mozilla/5.0 (Windows NT 10.0; Win64; x64) AppleWebKit/537.36 (KHTML, like Gecko) Chrome/131.0.0.0 Safari/537.36" version="25.0.3">
  <diagram name="Seite-1" id="lFU2M4lReYvQzyKdIfNN">
    <mxGraphModel dx="1434" dy="738" grid="1" gridSize="10" guides="1" tooltips="1" connect="1" arrows="1" fold="1" page="1" pageScale="1" pageWidth="827" pageHeight="1169" math="0" shadow="0">
      <root>
        <mxCell id="0" />
        <mxCell id="1" parent="0" />
        <mxCell id="PEofonqZDYsmdlYJIvpZ-13" style="edgeStyle=orthogonalEdgeStyle;rounded=0;orthogonalLoop=1;jettySize=auto;html=1;" parent="1" source="PEofonqZDYsmdlYJIvpZ-1" target="PEofonqZDYsmdlYJIvpZ-12" edge="1">
          <mxGeometry relative="1" as="geometry" />
        </mxCell>
        <mxCell id="PEofonqZDYsmdlYJIvpZ-23" style="edgeStyle=orthogonalEdgeStyle;rounded=0;orthogonalLoop=1;jettySize=auto;html=1;entryX=0.5;entryY=0;entryDx=0;entryDy=0;curved=1;exitX=0.981;exitY=0.363;exitDx=0;exitDy=0;exitPerimeter=0;" parent="1" source="PEofonqZDYsmdlYJIvpZ-1" target="PEofonqZDYsmdlYJIvpZ-20" edge="1">
          <mxGeometry relative="1" as="geometry" />
        </mxCell>
        <mxCell id="PEofonqZDYsmdlYJIvpZ-1" value="&lt;div&gt;__main__ calls:&lt;/div&gt;&lt;b&gt;optimize_matchings&lt;/b&gt;" style="ellipse;whiteSpace=wrap;html=1;" parent="1" vertex="1">
          <mxGeometry x="120" y="550" width="120" height="80" as="geometry" />
        </mxCell>
        <mxCell id="PEofonqZDYsmdlYJIvpZ-99" style="edgeStyle=orthogonalEdgeStyle;rounded=0;orthogonalLoop=1;jettySize=auto;html=1;entryX=0.5;entryY=0;entryDx=0;entryDy=0;" parent="1" source="PEofonqZDYsmdlYJIvpZ-3" target="PEofonqZDYsmdlYJIvpZ-7" edge="1">
          <mxGeometry relative="1" as="geometry" />
        </mxCell>
        <mxCell id="PEofonqZDYsmdlYJIvpZ-3" value="&lt;b&gt;__main__&lt;/b&gt;" style="ellipse;whiteSpace=wrap;html=1;" parent="1" vertex="1">
          <mxGeometry x="120" y="90" width="120" height="80" as="geometry" />
        </mxCell>
        <mxCell id="PEofonqZDYsmdlYJIvpZ-100" style="edgeStyle=orthogonalEdgeStyle;rounded=0;orthogonalLoop=1;jettySize=auto;html=1;exitX=0.5;exitY=1;exitDx=0;exitDy=0;entryX=0.5;entryY=0;entryDx=0;entryDy=0;" parent="1" source="PEofonqZDYsmdlYJIvpZ-7" target="PEofonqZDYsmdlYJIvpZ-9" edge="1">
          <mxGeometry relative="1" as="geometry" />
        </mxCell>
        <mxCell id="PEofonqZDYsmdlYJIvpZ-7" value="Read Netflix movies from &lt;b&gt;Netflix prize data&lt;/b&gt; and read &lt;b&gt;all movies from database&lt;/b&gt;" style="rounded=1;whiteSpace=wrap;html=1;" parent="1" vertex="1">
          <mxGeometry x="90" y="231" width="180" height="90" as="geometry" />
        </mxCell>
        <mxCell id="PEofonqZDYsmdlYJIvpZ-11" style="edgeStyle=orthogonalEdgeStyle;rounded=0;orthogonalLoop=1;jettySize=auto;html=1;" parent="1" source="PEofonqZDYsmdlYJIvpZ-9" target="PEofonqZDYsmdlYJIvpZ-1" edge="1">
          <mxGeometry relative="1" as="geometry" />
        </mxCell>
        <mxCell id="PEofonqZDYsmdlYJIvpZ-9" value="&lt;b&gt;Find most of the matches between Netflix movies and movies from database&lt;/b&gt; for useing Netfix prize&lt;b&gt; &lt;/b&gt;data as data for recommendation engine/AI model" style="rounded=1;whiteSpace=wrap;html=1;" parent="1" vertex="1">
          <mxGeometry x="65" y="380" width="230" height="120" as="geometry" />
        </mxCell>
        <mxCell id="PEofonqZDYsmdlYJIvpZ-32" style="edgeStyle=orthogonalEdgeStyle;rounded=0;orthogonalLoop=1;jettySize=auto;html=1;entryX=0.5;entryY=0;entryDx=0;entryDy=0;" parent="1" source="PEofonqZDYsmdlYJIvpZ-12" target="PEofonqZDYsmdlYJIvpZ-16" edge="1">
          <mxGeometry relative="1" as="geometry" />
        </mxCell>
        <mxCell id="PEofonqZDYsmdlYJIvpZ-12" value="&lt;b&gt;Update movies in database&lt;/b&gt;, add entry/key netflix_id. Save matchings persistently in table &quot;&lt;b&gt;all_movies&lt;/b&gt;&quot;." style="rounded=1;whiteSpace=wrap;html=1;" parent="1" vertex="1">
          <mxGeometry x="90" y="680" width="180" height="95" as="geometry" />
        </mxCell>
        <mxCell id="PEofonqZDYsmdlYJIvpZ-33" style="edgeStyle=orthogonalEdgeStyle;rounded=0;orthogonalLoop=1;jettySize=auto;html=1;entryX=0.5;entryY=0;entryDx=0;entryDy=0;" parent="1" source="PEofonqZDYsmdlYJIvpZ-16" target="PEofonqZDYsmdlYJIvpZ-18" edge="1">
          <mxGeometry relative="1" as="geometry" />
        </mxCell>
        <mxCell id="PEofonqZDYsmdlYJIvpZ-16" value="Read form Netflix prize data all user ratings and extract from this, what user has watched. Create with this information user histories (watched movies of a user)" style="rounded=1;whiteSpace=wrap;html=1;" parent="1" vertex="1">
          <mxGeometry x="80" y="826" width="200" height="95" as="geometry" />
        </mxCell>
        <mxCell id="PEofonqZDYsmdlYJIvpZ-18" value="Store user histories persistently in a file" style="rounded=1;whiteSpace=wrap;html=1;" parent="1" vertex="1">
          <mxGeometry x="105" y="970" width="150" height="62.5" as="geometry" />
        </mxCell>
        <mxCell id="PEofonqZDYsmdlYJIvpZ-27" style="edgeStyle=orthogonalEdgeStyle;rounded=0;orthogonalLoop=1;jettySize=auto;html=1;" parent="1" source="PEofonqZDYsmdlYJIvpZ-20" target="PEofonqZDYsmdlYJIvpZ-26" edge="1">
          <mxGeometry relative="1" as="geometry" />
        </mxCell>
        <mxCell id="PEofonqZDYsmdlYJIvpZ-20" value="&lt;b&gt;Group all movies from database &lt;/b&gt;and &lt;b&gt;do first, most restrictive matching run&lt;/b&gt;" style="shape=hexagon;perimeter=hexagonPerimeter2;whiteSpace=wrap;html=1;fixedSize=1;" parent="1" vertex="1">
          <mxGeometry x="609.5" y="258" width="175" height="85" as="geometry" />
        </mxCell>
        <mxCell id="PEofonqZDYsmdlYJIvpZ-30" style="edgeStyle=orthogonalEdgeStyle;rounded=0;orthogonalLoop=1;jettySize=auto;html=1;entryX=0.52;entryY=0.004;entryDx=0;entryDy=0;entryPerimeter=0;" parent="1" source="PEofonqZDYsmdlYJIvpZ-26" target="PEofonqZDYsmdlYJIvpZ-35" edge="1">
          <mxGeometry relative="1" as="geometry">
            <mxPoint x="697" y="518" as="targetPoint" />
          </mxGeometry>
        </mxCell>
        <mxCell id="PEofonqZDYsmdlYJIvpZ-26" value="&lt;div&gt;&lt;span style=&quot;background-color: initial;&quot;&gt;optimize_matchings&amp;nbsp;&lt;/span&gt;&lt;span style=&quot;background-color: initial;&quot;&gt;calls:&lt;/span&gt;&lt;/div&gt;&lt;b&gt;do_one_matching_run&lt;/b&gt;" style="ellipse;whiteSpace=wrap;html=1;" parent="1" vertex="1">
          <mxGeometry x="607" y="388" width="180" height="85" as="geometry" />
        </mxCell>
        <mxCell id="PEofonqZDYsmdlYJIvpZ-31" style="edgeStyle=orthogonalEdgeStyle;rounded=0;orthogonalLoop=1;jettySize=auto;html=1;entryX=0.5;entryY=0;entryDx=0;entryDy=0;" parent="1" edge="1">
          <mxGeometry relative="1" as="geometry">
            <mxPoint x="640" y="691" as="sourcePoint" />
          </mxGeometry>
        </mxCell>
        <mxCell id="PEofonqZDYsmdlYJIvpZ-35" value="For all passed grouping criteria&lt;br&gt;(e.g. [[True,&amp;nbsp; True], [True, False]]" style="swimlane;whiteSpace=wrap;html=1;startSize=49;" parent="1" vertex="1">
          <mxGeometry x="457" y="516" width="460" height="569" as="geometry">
            <mxRectangle x="457" y="516" width="460" height="49" as="alternateBounds" />
          </mxGeometry>
        </mxCell>
        <mxCell id="PEofonqZDYsmdlYJIvpZ-36" value="For all passed minimal ratio and maximal difference in year combinations (e.g. [(0.9, 0), (0.8, 2)])" style="swimlane;whiteSpace=wrap;html=1;startSize=50;" parent="PEofonqZDYsmdlYJIvpZ-35" vertex="1">
          <mxGeometry x="50" y="49" width="410" height="520" as="geometry">
            <mxRectangle x="50" y="49" width="410" height="50" as="alternateBounds" />
          </mxGeometry>
        </mxCell>
        <mxCell id="PEofonqZDYsmdlYJIvpZ-43" style="edgeStyle=orthogonalEdgeStyle;rounded=0;orthogonalLoop=1;jettySize=auto;html=1;entryX=0.5;entryY=0;entryDx=0;entryDy=0;" parent="PEofonqZDYsmdlYJIvpZ-36" source="PEofonqZDYsmdlYJIvpZ-37" target="PEofonqZDYsmdlYJIvpZ-38" edge="1">
          <mxGeometry relative="1" as="geometry" />
        </mxCell>
        <mxCell id="PEofonqZDYsmdlYJIvpZ-37" value="&lt;b&gt;Find matchings between movies from database and Netflix movies without any matching&lt;/b&gt; (caused by too high temporal/year difference)" style="shape=hexagon;perimeter=hexagonPerimeter2;whiteSpace=wrap;html=1;fixedSize=1;" parent="PEofonqZDYsmdlYJIvpZ-36" vertex="1">
          <mxGeometry x="30" y="59" width="330" height="71" as="geometry" />
        </mxCell>
        <mxCell id="PEofonqZDYsmdlYJIvpZ-49" style="edgeStyle=orthogonalEdgeStyle;rounded=0;orthogonalLoop=1;jettySize=auto;html=1;entryX=0.5;entryY=0;entryDx=0;entryDy=0;" parent="PEofonqZDYsmdlYJIvpZ-36" source="PEofonqZDYsmdlYJIvpZ-38" target="PEofonqZDYsmdlYJIvpZ-39" edge="1">
          <mxGeometry relative="1" as="geometry" />
        </mxCell>
        <mxCell id="PEofonqZDYsmdlYJIvpZ-38" value="&lt;div&gt;&lt;span style=&quot;background-color: initial;&quot;&gt;do_one_matching_run&lt;/span&gt;&lt;/div&gt;" style="ellipse;whiteSpace=wrap;html=1;" parent="PEofonqZDYsmdlYJIvpZ-36" vertex="1">
          <mxGeometry x="125" y="149" width="140" height="51" as="geometry" />
        </mxCell>
        <mxCell id="PEofonqZDYsmdlYJIvpZ-51" style="edgeStyle=orthogonalEdgeStyle;rounded=0;orthogonalLoop=1;jettySize=auto;html=1;entryX=0.5;entryY=0;entryDx=0;entryDy=0;" parent="PEofonqZDYsmdlYJIvpZ-36" source="PEofonqZDYsmdlYJIvpZ-39" target="PEofonqZDYsmdlYJIvpZ-40" edge="1">
          <mxGeometry relative="1" as="geometry" />
        </mxCell>
        <mxCell id="PEofonqZDYsmdlYJIvpZ-39" value="&lt;div&gt;&lt;span style=&quot;background-color: initial;&quot;&gt;output_matching_results&lt;/span&gt;&lt;/div&gt;" style="ellipse;whiteSpace=wrap;html=1;" parent="PEofonqZDYsmdlYJIvpZ-36" vertex="1">
          <mxGeometry x="125" y="222" width="140" height="51" as="geometry" />
        </mxCell>
        <mxCell id="PEofonqZDYsmdlYJIvpZ-40" value="&lt;b&gt;Find matchings between movies from database and Netflix movies without any matching&lt;/b&gt; (caused by finding no match)" style="shape=hexagon;perimeter=hexagonPerimeter2;whiteSpace=wrap;html=1;fixedSize=1;" parent="PEofonqZDYsmdlYJIvpZ-36" vertex="1">
          <mxGeometry x="70" y="292" width="250" height="71" as="geometry" />
        </mxCell>
        <mxCell id="PEofonqZDYsmdlYJIvpZ-41" value="&lt;div&gt;&lt;span style=&quot;background-color: initial;&quot;&gt;do_one_matching_run&lt;/span&gt;&lt;/div&gt;" style="ellipse;whiteSpace=wrap;html=1;" parent="PEofonqZDYsmdlYJIvpZ-36" vertex="1">
          <mxGeometry x="125" y="382" width="140" height="51" as="geometry" />
        </mxCell>
        <mxCell id="PEofonqZDYsmdlYJIvpZ-47" style="edgeStyle=orthogonalEdgeStyle;rounded=0;orthogonalLoop=1;jettySize=auto;html=1;entryX=0.5;entryY=0;entryDx=0;entryDy=0;" parent="PEofonqZDYsmdlYJIvpZ-36" source="PEofonqZDYsmdlYJIvpZ-40" target="PEofonqZDYsmdlYJIvpZ-41" edge="1">
          <mxGeometry relative="1" as="geometry" />
        </mxCell>
        <mxCell id="PEofonqZDYsmdlYJIvpZ-42" value="&lt;div&gt;&lt;span style=&quot;background-color: initial;&quot;&gt;output_matching_results&lt;/span&gt;&lt;/div&gt;" style="ellipse;whiteSpace=wrap;html=1;" parent="PEofonqZDYsmdlYJIvpZ-36" vertex="1">
          <mxGeometry x="125" y="452" width="140" height="51" as="geometry" />
        </mxCell>
        <mxCell id="PEofonqZDYsmdlYJIvpZ-48" style="edgeStyle=orthogonalEdgeStyle;rounded=0;orthogonalLoop=1;jettySize=auto;html=1;entryX=0.5;entryY=0;entryDx=0;entryDy=0;" parent="PEofonqZDYsmdlYJIvpZ-36" source="PEofonqZDYsmdlYJIvpZ-41" target="PEofonqZDYsmdlYJIvpZ-42" edge="1">
          <mxGeometry relative="1" as="geometry" />
        </mxCell>
        <mxCell id="PEofonqZDYsmdlYJIvpZ-53" style="edgeStyle=orthogonalEdgeStyle;rounded=0;orthogonalLoop=1;jettySize=auto;html=1;entryX=0.986;entryY=0.615;entryDx=0;entryDy=0;entryPerimeter=0;curved=1;exitX=0.5;exitY=1;exitDx=0;exitDy=0;" parent="1" source="PEofonqZDYsmdlYJIvpZ-35" target="PEofonqZDYsmdlYJIvpZ-1" edge="1">
          <mxGeometry relative="1" as="geometry" />
        </mxCell>
        <mxCell id="PEofonqZDYsmdlYJIvpZ-59" style="edgeStyle=orthogonalEdgeStyle;rounded=0;orthogonalLoop=1;jettySize=auto;html=1;entryX=0.5;entryY=0;entryDx=0;entryDy=0;" parent="1" target="PEofonqZDYsmdlYJIvpZ-55" edge="1">
          <mxGeometry relative="1" as="geometry">
            <mxPoint x="1208" y="340" as="sourcePoint" />
          </mxGeometry>
        </mxCell>
        <mxCell id="PEofonqZDYsmdlYJIvpZ-60" style="edgeStyle=orthogonalEdgeStyle;rounded=0;orthogonalLoop=1;jettySize=auto;html=1;entryX=0.5;entryY=0;entryDx=0;entryDy=0;" parent="1" source="PEofonqZDYsmdlYJIvpZ-55" target="PEofonqZDYsmdlYJIvpZ-56" edge="1">
          <mxGeometry relative="1" as="geometry" />
        </mxCell>
        <mxCell id="PEofonqZDYsmdlYJIvpZ-55" value="Ungroup grouped movies of database. Then group it and Netflix movies with passed grouping criterium" style="rounded=1;whiteSpace=wrap;html=1;" parent="1" vertex="1">
          <mxGeometry x="1118" y="440" width="180" height="90" as="geometry" />
        </mxCell>
        <mxCell id="PEofonqZDYsmdlYJIvpZ-74" style="edgeStyle=orthogonalEdgeStyle;rounded=0;orthogonalLoop=1;jettySize=auto;html=1;" parent="1" source="PEofonqZDYsmdlYJIvpZ-56" target="PEofonqZDYsmdlYJIvpZ-73" edge="1">
          <mxGeometry relative="1" as="geometry" />
        </mxCell>
        <mxCell id="PEofonqZDYsmdlYJIvpZ-56" value="Two calls of function &quot;&lt;b&gt;group_movies_by_attr&lt;/b&gt;&quot;" style="ellipse;whiteSpace=wrap;html=1;" parent="1" vertex="1">
          <mxGeometry x="1130.5" y="585" width="155" height="80" as="geometry" />
        </mxCell>
        <mxCell id="PEofonqZDYsmdlYJIvpZ-62" style="edgeStyle=orthogonalEdgeStyle;rounded=0;orthogonalLoop=1;jettySize=auto;html=1;exitX=0.5;exitY=1;exitDx=0;exitDy=0;entryX=0.5;entryY=0;entryDx=0;entryDy=0;" parent="1" source="PEofonqZDYsmdlYJIvpZ-57" target="PEofonqZDYsmdlYJIvpZ-58" edge="1">
          <mxGeometry relative="1" as="geometry" />
        </mxCell>
        <mxCell id="PEofonqZDYsmdlYJIvpZ-57" value="Find matching between Netflix movies and movies from database" style="rounded=1;whiteSpace=wrap;html=1;" parent="1" vertex="1">
          <mxGeometry x="1118" y="838" width="180" height="90" as="geometry" />
        </mxCell>
        <mxCell id="PEofonqZDYsmdlYJIvpZ-58" value="Call of function: &quot;&lt;b&gt;match_netflix_movies_with_movies_from_database&lt;/b&gt;&quot;" style="ellipse;whiteSpace=wrap;html=1;" parent="1" vertex="1">
          <mxGeometry x="1036.75" y="988" width="342.5" height="100" as="geometry" />
        </mxCell>
        <mxCell id="PEofonqZDYsmdlYJIvpZ-70" style="edgeStyle=orthogonalEdgeStyle;rounded=0;orthogonalLoop=1;jettySize=auto;html=1;entryX=0.5;entryY=0;entryDx=0;entryDy=0;exitX=0;exitY=0.49;exitDx=0;exitDy=0;exitPerimeter=0;" parent="1" source="PEofonqZDYsmdlYJIvpZ-122" target="PEofonqZDYsmdlYJIvpZ-66" edge="1">
          <mxGeometry relative="1" as="geometry">
            <mxPoint x="2473" y="388" as="sourcePoint" />
          </mxGeometry>
        </mxCell>
        <mxCell id="PEofonqZDYsmdlYJIvpZ-64" value="" style="endArrow=classic;html=1;rounded=0;entryX=0.018;entryY=0.011;entryDx=0;entryDy=0;exitX=0.906;exitY=0.612;exitDx=0;exitDy=0;exitPerimeter=0;dashed=1;entryPerimeter=0;" parent="1" source="PEofonqZDYsmdlYJIvpZ-26" target="PEofonqZDYsmdlYJIvpZ-115" edge="1">
          <mxGeometry width="50" height="50" relative="1" as="geometry">
            <mxPoint x="810" y="440" as="sourcePoint" />
            <mxPoint x="1140" y="309.5" as="targetPoint" />
          </mxGeometry>
        </mxCell>
        <mxCell id="PEofonqZDYsmdlYJIvpZ-65" style="rounded=0;orthogonalLoop=1;jettySize=auto;html=1;dashed=1;exitX=0.807;exitY=0.5;exitDx=0;exitDy=0;exitPerimeter=0;entryX=-0.006;entryY=-0.005;entryDx=0;entryDy=0;entryPerimeter=0;" parent="1" source="PEofonqZDYsmdlYJIvpZ-58" target="PEofonqZDYsmdlYJIvpZ-122" edge="1">
          <mxGeometry relative="1" as="geometry">
            <mxPoint x="2253" y="330" as="targetPoint" />
            <Array as="points">
              <mxPoint x="2060" y="850" />
            </Array>
          </mxGeometry>
        </mxCell>
        <mxCell id="PEofonqZDYsmdlYJIvpZ-66" value="For all Netflix movie grouping expressions" style="swimlane;whiteSpace=wrap;html=1;" parent="1" vertex="1">
          <mxGeometry x="2298" y="440" width="350" height="300" as="geometry">
            <mxRectangle x="1850" y="450" width="235" height="20" as="alternateBounds" />
          </mxGeometry>
        </mxCell>
        <mxCell id="PEofonqZDYsmdlYJIvpZ-67" value="For all movies from database from Netflix movie grouping expression" style="swimlane;whiteSpace=wrap;html=1;startSize=37;" parent="PEofonqZDYsmdlYJIvpZ-66" vertex="1">
          <mxGeometry x="45" y="23" width="305" height="277" as="geometry">
            <mxRectangle x="45" y="23" width="300" height="37" as="alternateBounds" />
          </mxGeometry>
        </mxCell>
        <mxCell id="PEofonqZDYsmdlYJIvpZ-72" style="edgeStyle=orthogonalEdgeStyle;rounded=0;orthogonalLoop=1;jettySize=auto;html=1;exitX=0.5;exitY=1;exitDx=0;exitDy=0;" parent="PEofonqZDYsmdlYJIvpZ-67" source="PEofonqZDYsmdlYJIvpZ-68" target="PEofonqZDYsmdlYJIvpZ-69" edge="1">
          <mxGeometry relative="1" as="geometry" />
        </mxCell>
        <mxCell id="PEofonqZDYsmdlYJIvpZ-68" value="Find a matching between a Netflix movie of a grouping expression and database movies of this grouping expression" style="rounded=1;whiteSpace=wrap;html=1;" parent="PEofonqZDYsmdlYJIvpZ-67" vertex="1">
          <mxGeometry x="62.5" y="55" width="180" height="90" as="geometry" />
        </mxCell>
        <mxCell id="PEofonqZDYsmdlYJIvpZ-69" value="Call function: &quot;&lt;b&gt;find_netflix_movie_in_database&lt;/b&gt;&quot;" style="ellipse;whiteSpace=wrap;html=1;" parent="PEofonqZDYsmdlYJIvpZ-67" vertex="1">
          <mxGeometry x="32.5" y="177" width="240" height="80" as="geometry" />
        </mxCell>
        <mxCell id="PEofonqZDYsmdlYJIvpZ-75" style="edgeStyle=orthogonalEdgeStyle;rounded=0;orthogonalLoop=1;jettySize=auto;html=1;" parent="1" source="PEofonqZDYsmdlYJIvpZ-73" target="PEofonqZDYsmdlYJIvpZ-57" edge="1">
          <mxGeometry relative="1" as="geometry" />
        </mxCell>
        <mxCell id="PEofonqZDYsmdlYJIvpZ-73" value="Output groups with function &quot;&lt;b&gt;output_groups&lt;/b&gt;&quot;" style="ellipse;whiteSpace=wrap;html=1;" parent="1" vertex="1">
          <mxGeometry x="1130.5" y="710" width="155" height="80" as="geometry" />
        </mxCell>
        <mxCell id="PEofonqZDYsmdlYJIvpZ-103" value="" style="edgeStyle=orthogonalEdgeStyle;rounded=0;orthogonalLoop=1;jettySize=auto;html=1;" parent="1" source="PEofonqZDYsmdlYJIvpZ-77" target="PEofonqZDYsmdlYJIvpZ-97" edge="1">
          <mxGeometry relative="1" as="geometry" />
        </mxCell>
        <mxCell id="PEofonqZDYsmdlYJIvpZ-135" value="No" style="edgeLabel;html=1;align=center;verticalAlign=middle;resizable=0;points=[];" parent="PEofonqZDYsmdlYJIvpZ-103" vertex="1" connectable="0">
          <mxGeometry x="-0.2286" y="-2" relative="1" as="geometry">
            <mxPoint x="13" y="-2" as="offset" />
          </mxGeometry>
        </mxCell>
        <mxCell id="PEofonqZDYsmdlYJIvpZ-77" value="Split further words?" style="rhombus;whiteSpace=wrap;html=1;" parent="1" vertex="1">
          <mxGeometry x="1862" y="580" width="100" height="95" as="geometry" />
        </mxCell>
        <mxCell id="PEofonqZDYsmdlYJIvpZ-80" value="For each movie from passed movies" style="swimlane;whiteSpace=wrap;html=1;startSize=37;" parent="1" vertex="1">
          <mxGeometry x="1385.5" y="440" width="305" height="260" as="geometry">
            <mxRectangle x="1402.5" y="440" width="307.5" height="37" as="alternateBounds" />
          </mxGeometry>
        </mxCell>
        <mxCell id="PEofonqZDYsmdlYJIvpZ-102" style="edgeStyle=orthogonalEdgeStyle;rounded=0;orthogonalLoop=1;jettySize=auto;html=1;" parent="PEofonqZDYsmdlYJIvpZ-80" source="PEofonqZDYsmdlYJIvpZ-83" target="PEofonqZDYsmdlYJIvpZ-101" edge="1">
          <mxGeometry relative="1" as="geometry" />
        </mxCell>
        <mxCell id="PEofonqZDYsmdlYJIvpZ-83" value="Call function: &quot;&lt;b&gt;build_grouping_expression&lt;/b&gt;&quot;" style="ellipse;whiteSpace=wrap;html=1;" parent="PEofonqZDYsmdlYJIvpZ-80" vertex="1">
          <mxGeometry x="32.5" y="60" width="240" height="80" as="geometry" />
        </mxCell>
        <mxCell id="PEofonqZDYsmdlYJIvpZ-101" value="&lt;b&gt;Save result in dictionary&lt;/b&gt;:&lt;div&gt;&lt;b&gt;Keys&lt;/b&gt;: grouping expressions&lt;/div&gt;&lt;div&gt;&lt;b&gt;Values&lt;/b&gt;: list of movies&lt;/div&gt;" style="rounded=1;whiteSpace=wrap;html=1;" parent="PEofonqZDYsmdlYJIvpZ-80" vertex="1">
          <mxGeometry x="52.5" y="178" width="200" height="60" as="geometry" />
        </mxCell>
        <mxCell id="PEofonqZDYsmdlYJIvpZ-96" style="edgeStyle=orthogonalEdgeStyle;rounded=0;orthogonalLoop=1;jettySize=auto;html=1;exitX=-0.001;exitY=0.491;exitDx=0;exitDy=0;entryX=0.5;entryY=0;entryDx=0;entryDy=0;exitPerimeter=0;" parent="1" source="PEofonqZDYsmdlYJIvpZ-118" target="PEofonqZDYsmdlYJIvpZ-87" edge="1">
          <mxGeometry relative="1" as="geometry">
            <mxPoint x="1912.0000000000005" y="387.0000000000001" as="sourcePoint" />
          </mxGeometry>
        </mxCell>
        <mxCell id="PEofonqZDYsmdlYJIvpZ-94" style="edgeStyle=orthogonalEdgeStyle;rounded=0;orthogonalLoop=1;jettySize=auto;html=1;entryX=0.5;entryY=0;entryDx=0;entryDy=0;" parent="1" source="PEofonqZDYsmdlYJIvpZ-87" target="PEofonqZDYsmdlYJIvpZ-77" edge="1">
          <mxGeometry relative="1" as="geometry" />
        </mxCell>
        <mxCell id="PEofonqZDYsmdlYJIvpZ-87" value="Use RegEx to split first word/number or first letter/number from word" style="rounded=1;whiteSpace=wrap;html=1;" parent="1" vertex="1">
          <mxGeometry x="1822" y="440" width="180" height="90" as="geometry" />
        </mxCell>
        <mxCell id="PEofonqZDYsmdlYJIvpZ-91" value="" style="group" parent="1" vertex="1" connectable="0">
          <mxGeometry x="1429.25" y="242.5" width="217.5" height="95" as="geometry" />
        </mxCell>
        <mxCell id="PEofonqZDYsmdlYJIvpZ-89" value="" style="triangle;whiteSpace=wrap;html=1;rotation=-90;" parent="PEofonqZDYsmdlYJIvpZ-91" vertex="1">
          <mxGeometry x="61.25" y="-61.25" width="95" height="217.5" as="geometry" />
        </mxCell>
        <mxCell id="PEofonqZDYsmdlYJIvpZ-90" value="&lt;u style=&quot;text-wrap-mode: wrap;&quot;&gt;Function&lt;/u&gt;&lt;span style=&quot;text-wrap-mode: wrap;&quot;&gt;:&lt;/span&gt;&lt;div style=&quot;text-wrap-mode: wrap;&quot;&gt;&lt;b&gt;group_movies_by_attr&lt;/b&gt;&lt;/div&gt;" style="text;html=1;align=center;verticalAlign=middle;resizable=0;points=[];autosize=1;strokeColor=none;fillColor=none;" parent="PEofonqZDYsmdlYJIvpZ-91" vertex="1">
          <mxGeometry x="33" y="45" width="150" height="40" as="geometry" />
        </mxCell>
        <mxCell id="PEofonqZDYsmdlYJIvpZ-93" style="edgeStyle=orthogonalEdgeStyle;rounded=0;orthogonalLoop=1;jettySize=auto;html=1;entryX=0.5;entryY=0;entryDx=0;entryDy=0;" parent="1" target="PEofonqZDYsmdlYJIvpZ-80" edge="1">
          <mxGeometry relative="1" as="geometry">
            <mxPoint x="1538" y="340" as="sourcePoint" />
          </mxGeometry>
        </mxCell>
        <mxCell id="PEofonqZDYsmdlYJIvpZ-97" value="Return concatenated grouping expressions" style="rounded=1;whiteSpace=wrap;html=1;" parent="1" vertex="1">
          <mxGeometry x="1822" y="730" width="181" height="60" as="geometry" />
        </mxCell>
        <mxCell id="PEofonqZDYsmdlYJIvpZ-105" value="" style="endArrow=classic;html=1;rounded=0;exitX=0.729;exitY=0.5;exitDx=0;exitDy=0;exitPerimeter=0;dashed=1;" parent="1" source="PEofonqZDYsmdlYJIvpZ-83" edge="1">
          <mxGeometry width="50" height="50" relative="1" as="geometry">
            <mxPoint x="1663" y="570" as="sourcePoint" />
            <mxPoint x="1783" y="338" as="targetPoint" />
          </mxGeometry>
        </mxCell>
        <mxCell id="PEofonqZDYsmdlYJIvpZ-106" value="" style="endArrow=classic;html=1;rounded=0;dashed=1;exitX=0.919;exitY=0.5;exitDx=0;exitDy=0;exitPerimeter=0;" parent="1" source="PEofonqZDYsmdlYJIvpZ-56" edge="1">
          <mxGeometry width="50" height="50" relative="1" as="geometry">
            <mxPoint x="1293" y="610" as="sourcePoint" />
            <mxPoint x="1427" y="340" as="targetPoint" />
          </mxGeometry>
        </mxCell>
        <mxCell id="PEofonqZDYsmdlYJIvpZ-107" style="edgeStyle=orthogonalEdgeStyle;rounded=0;orthogonalLoop=1;jettySize=auto;html=1;entryX=0.5;entryY=0;entryDx=0;entryDy=0;exitX=-0.001;exitY=0.491;exitDx=0;exitDy=0;exitPerimeter=0;" parent="1" source="PEofonqZDYsmdlYJIvpZ-127" target="PEofonqZDYsmdlYJIvpZ-109" edge="1">
          <mxGeometry relative="1" as="geometry">
            <mxPoint x="2973" y="330" as="sourcePoint" />
          </mxGeometry>
        </mxCell>
        <mxCell id="PEofonqZDYsmdlYJIvpZ-143" style="edgeStyle=orthogonalEdgeStyle;rounded=0;orthogonalLoop=1;jettySize=auto;html=1;entryX=0.5;entryY=0;entryDx=0;entryDy=0;" parent="1" source="PEofonqZDYsmdlYJIvpZ-109" target="PEofonqZDYsmdlYJIvpZ-142" edge="1">
          <mxGeometry relative="1" as="geometry" />
        </mxCell>
        <mxCell id="PEofonqZDYsmdlYJIvpZ-109" value="For all movies from database" style="swimlane;whiteSpace=wrap;html=1;" parent="1" vertex="1">
          <mxGeometry x="2798" y="440" width="350" height="380" as="geometry">
            <mxRectangle x="1850" y="450" width="235" height="20" as="alternateBounds" />
          </mxGeometry>
        </mxCell>
        <mxCell id="PEofonqZDYsmdlYJIvpZ-132" style="edgeStyle=orthogonalEdgeStyle;rounded=0;orthogonalLoop=1;jettySize=auto;html=1;entryX=0.5;entryY=0;entryDx=0;entryDy=0;" parent="PEofonqZDYsmdlYJIvpZ-109" source="PEofonqZDYsmdlYJIvpZ-130" target="PEofonqZDYsmdlYJIvpZ-131" edge="1">
          <mxGeometry relative="1" as="geometry" />
        </mxCell>
        <mxCell id="PEofonqZDYsmdlYJIvpZ-130" value="&lt;div&gt;Compute similarity between Netflix movie and movie from database:&amp;nbsp;&lt;span style=&quot;background-color: initial;&quot;&gt;&quot;&lt;/span&gt;&lt;b style=&quot;background-color: initial;&quot;&gt;compare_strings&lt;/b&gt;&lt;span style=&quot;background-color: initial;&quot;&gt;&quot;&lt;/span&gt;&lt;/div&gt;" style="ellipse;whiteSpace=wrap;html=1;" parent="PEofonqZDYsmdlYJIvpZ-109" vertex="1">
          <mxGeometry x="42.5" y="40" width="265" height="90" as="geometry" />
        </mxCell>
        <mxCell id="PEofonqZDYsmdlYJIvpZ-138" style="edgeStyle=orthogonalEdgeStyle;rounded=0;orthogonalLoop=1;jettySize=auto;html=1;entryX=0.5;entryY=0;entryDx=0;entryDy=0;" parent="PEofonqZDYsmdlYJIvpZ-109" source="PEofonqZDYsmdlYJIvpZ-131" target="PEofonqZDYsmdlYJIvpZ-136" edge="1">
          <mxGeometry relative="1" as="geometry" />
        </mxCell>
        <mxCell id="PEofonqZDYsmdlYJIvpZ-140" value="Yes" style="edgeLabel;html=1;align=center;verticalAlign=middle;resizable=0;points=[];" parent="PEofonqZDYsmdlYJIvpZ-138" vertex="1" connectable="0">
          <mxGeometry x="0.0997" y="1" relative="1" as="geometry">
            <mxPoint x="19" y="-12" as="offset" />
          </mxGeometry>
        </mxCell>
        <mxCell id="PEofonqZDYsmdlYJIvpZ-131" value="Similarity above minimal ratio?" style="rhombus;whiteSpace=wrap;html=1;" parent="PEofonqZDYsmdlYJIvpZ-109" vertex="1">
          <mxGeometry x="117.5" y="170" width="115" height="110.5" as="geometry" />
        </mxCell>
        <mxCell id="PEofonqZDYsmdlYJIvpZ-136" value="Save movie in list of possible matching movies" style="rounded=1;whiteSpace=wrap;html=1;" parent="PEofonqZDYsmdlYJIvpZ-109" vertex="1">
          <mxGeometry x="87.5" y="320" width="175" height="50" as="geometry" />
        </mxCell>
        <mxCell id="PEofonqZDYsmdlYJIvpZ-114" value="" style="group" parent="1" vertex="1" connectable="0">
          <mxGeometry x="1099.25" y="242.5" width="217.5" height="95" as="geometry" />
        </mxCell>
        <mxCell id="PEofonqZDYsmdlYJIvpZ-115" value="" style="triangle;whiteSpace=wrap;html=1;rotation=-90;" parent="PEofonqZDYsmdlYJIvpZ-114" vertex="1">
          <mxGeometry x="61.25" y="-61.25" width="95" height="217.5" as="geometry" />
        </mxCell>
        <mxCell id="PEofonqZDYsmdlYJIvpZ-116" value="&lt;u style=&quot;text-wrap-mode: wrap;&quot;&gt;Function&lt;/u&gt;&lt;span style=&quot;text-wrap-mode: wrap;&quot;&gt;:&lt;/span&gt;&lt;div style=&quot;text-wrap-mode: wrap;&quot;&gt;&lt;b&gt;do_one_matching_run&lt;/b&gt;&lt;/div&gt;" style="text;html=1;align=center;verticalAlign=middle;resizable=0;points=[];autosize=1;strokeColor=none;fillColor=none;" parent="PEofonqZDYsmdlYJIvpZ-114" vertex="1">
          <mxGeometry x="33" y="45" width="150" height="40" as="geometry" />
        </mxCell>
        <mxCell id="PEofonqZDYsmdlYJIvpZ-117" value="" style="group" parent="1" vertex="1" connectable="0">
          <mxGeometry x="1784.5" y="242.5" width="217.5" height="178.13" as="geometry" />
        </mxCell>
        <mxCell id="PEofonqZDYsmdlYJIvpZ-118" value="" style="triangle;whiteSpace=wrap;html=1;rotation=-90;" parent="PEofonqZDYsmdlYJIvpZ-117" vertex="1">
          <mxGeometry x="83.13" y="-83.12" width="95" height="261.25" as="geometry" />
        </mxCell>
        <mxCell id="PEofonqZDYsmdlYJIvpZ-119" value="&lt;u style=&quot;text-wrap-mode: wrap;&quot;&gt;Function&lt;/u&gt;&lt;span style=&quot;text-wrap-mode: wrap;&quot;&gt;:&lt;/span&gt;&lt;div style=&quot;text-wrap-mode: wrap;&quot;&gt;&lt;b&gt;build_grouping_expression&lt;/b&gt;&lt;/div&gt;" style="text;html=1;align=center;verticalAlign=middle;resizable=0;points=[];autosize=1;strokeColor=none;fillColor=none;" parent="PEofonqZDYsmdlYJIvpZ-117" vertex="1">
          <mxGeometry x="37" y="45" width="180" height="40" as="geometry" />
        </mxCell>
        <mxCell id="PEofonqZDYsmdlYJIvpZ-120" style="edgeStyle=orthogonalEdgeStyle;rounded=0;orthogonalLoop=1;jettySize=auto;html=1;entryX=-0.001;entryY=1.005;entryDx=0;entryDy=0;entryPerimeter=0;" parent="1" source="PEofonqZDYsmdlYJIvpZ-77" target="PEofonqZDYsmdlYJIvpZ-118" edge="1">
          <mxGeometry relative="1" as="geometry">
            <Array as="points">
              <mxPoint x="2066" y="617" />
              <mxPoint x="2066" y="338" />
            </Array>
          </mxGeometry>
        </mxCell>
        <mxCell id="PEofonqZDYsmdlYJIvpZ-134" value="Yes" style="edgeLabel;html=1;align=center;verticalAlign=middle;resizable=0;points=[];" parent="PEofonqZDYsmdlYJIvpZ-120" vertex="1" connectable="0">
          <mxGeometry x="-0.7164" y="1" relative="1" as="geometry">
            <mxPoint x="-26" y="-8" as="offset" />
          </mxGeometry>
        </mxCell>
        <mxCell id="PEofonqZDYsmdlYJIvpZ-124" value="" style="group" parent="1" vertex="1" connectable="0">
          <mxGeometry x="2253" y="231" width="384.52" height="272.03" as="geometry" />
        </mxCell>
        <mxCell id="PEofonqZDYsmdlYJIvpZ-121" value="" style="group" parent="PEofonqZDYsmdlYJIvpZ-124" vertex="1" connectable="0">
          <mxGeometry width="287" height="272.03" as="geometry" />
        </mxCell>
        <mxCell id="PEofonqZDYsmdlYJIvpZ-122" value="" style="triangle;whiteSpace=wrap;html=1;rotation=-90;" parent="PEofonqZDYsmdlYJIvpZ-121" vertex="1">
          <mxGeometry x="177.02" y="-177.02" width="95" height="449.05" as="geometry" />
        </mxCell>
        <mxCell id="PEofonqZDYsmdlYJIvpZ-123" value="&lt;u style=&quot;text-wrap-mode: wrap;&quot;&gt;Function&lt;/u&gt;&lt;span style=&quot;text-wrap-mode: wrap;&quot;&gt;:&lt;/span&gt;&lt;div style=&quot;text-wrap-mode: wrap;&quot;&gt;&lt;b&gt;match_netflix_movies_with_movies_from_database&lt;/b&gt;&lt;/div&gt;" style="text;html=1;align=center;verticalAlign=middle;resizable=0;points=[];autosize=1;strokeColor=none;fillColor=none;" parent="PEofonqZDYsmdlYJIvpZ-124" vertex="1">
          <mxGeometry x="64.51999999999998" y="45" width="320" height="40" as="geometry" />
        </mxCell>
        <mxCell id="PEofonqZDYsmdlYJIvpZ-125" value="" style="group" parent="1" vertex="1" connectable="0">
          <mxGeometry x="2793" y="231" width="384.52" height="272.03" as="geometry" />
        </mxCell>
        <mxCell id="PEofonqZDYsmdlYJIvpZ-126" value="" style="group" parent="PEofonqZDYsmdlYJIvpZ-125" vertex="1" connectable="0">
          <mxGeometry width="287" height="272.03" as="geometry" />
        </mxCell>
        <mxCell id="PEofonqZDYsmdlYJIvpZ-127" value="" style="triangle;whiteSpace=wrap;html=1;rotation=-90;" parent="PEofonqZDYsmdlYJIvpZ-126" vertex="1">
          <mxGeometry x="136.01" y="-136.01" width="95" height="367.02" as="geometry" />
        </mxCell>
        <mxCell id="PEofonqZDYsmdlYJIvpZ-128" value="&lt;u style=&quot;text-wrap-mode: wrap;&quot;&gt;Function&lt;/u&gt;&lt;span style=&quot;text-wrap-mode: wrap;&quot;&gt;:&lt;/span&gt;&lt;div style=&quot;text-wrap-mode: wrap;&quot;&gt;&lt;b&gt;find_netflix_movie_in_database&lt;/b&gt;&lt;/div&gt;" style="text;html=1;align=center;verticalAlign=middle;resizable=0;points=[];autosize=1;strokeColor=none;fillColor=none;" parent="PEofonqZDYsmdlYJIvpZ-126" vertex="1">
          <mxGeometry x="81.99999999999997" y="42" width="200" height="40" as="geometry" />
        </mxCell>
        <mxCell id="PEofonqZDYsmdlYJIvpZ-129" style="rounded=0;orthogonalLoop=1;jettySize=auto;html=1;dashed=1;exitX=0.781;exitY=0.5;exitDx=0;exitDy=0;exitPerimeter=0;entryX=-0.006;entryY=-0.006;entryDx=0;entryDy=0;entryPerimeter=0;" parent="1" source="PEofonqZDYsmdlYJIvpZ-69" target="PEofonqZDYsmdlYJIvpZ-127" edge="1">
          <mxGeometry relative="1" as="geometry">
            <mxPoint x="1323" y="1048" as="sourcePoint" />
            <mxPoint x="2783" y="340" as="targetPoint" />
          </mxGeometry>
        </mxCell>
        <mxCell id="PEofonqZDYsmdlYJIvpZ-148" style="edgeStyle=orthogonalEdgeStyle;rounded=0;orthogonalLoop=1;jettySize=auto;html=1;entryX=0.5;entryY=0;entryDx=0;entryDy=0;" parent="1" source="PEofonqZDYsmdlYJIvpZ-142" target="PEofonqZDYsmdlYJIvpZ-145" edge="1">
          <mxGeometry relative="1" as="geometry" />
        </mxCell>
        <mxCell id="PEofonqZDYsmdlYJIvpZ-149" value="No movie matches" style="edgeLabel;html=1;align=center;verticalAlign=middle;resizable=0;points=[];" parent="PEofonqZDYsmdlYJIvpZ-148" vertex="1" connectable="0">
          <mxGeometry x="-0.7698" y="-1" relative="1" as="geometry">
            <mxPoint x="-34" y="-10" as="offset" />
          </mxGeometry>
        </mxCell>
        <mxCell id="PEofonqZDYsmdlYJIvpZ-155" style="edgeStyle=orthogonalEdgeStyle;rounded=0;orthogonalLoop=1;jettySize=auto;html=1;entryX=0.5;entryY=0;entryDx=0;entryDy=0;" parent="1" source="PEofonqZDYsmdlYJIvpZ-142" target="PEofonqZDYsmdlYJIvpZ-147" edge="1">
          <mxGeometry relative="1" as="geometry" />
        </mxCell>
        <mxCell id="PEofonqZDYsmdlYJIvpZ-157" value="Found multiple&lt;div&gt;matching movies&lt;/div&gt;" style="edgeLabel;html=1;align=center;verticalAlign=middle;resizable=0;points=[];" parent="PEofonqZDYsmdlYJIvpZ-155" vertex="1" connectable="0">
          <mxGeometry x="0.7156" y="-1" relative="1" as="geometry">
            <mxPoint x="-79" y="-107" as="offset" />
          </mxGeometry>
        </mxCell>
        <mxCell id="PEofonqZDYsmdlYJIvpZ-142" value="&lt;div&gt;&lt;br&gt;&lt;/div&gt;How many possible matching movies&lt;div&gt;are found?&lt;/div&gt;" style="rhombus;whiteSpace=wrap;html=1;" parent="1" vertex="1">
          <mxGeometry x="2899.25" y="860" width="147.5" height="140.5" as="geometry" />
        </mxCell>
        <mxCell id="PEofonqZDYsmdlYJIvpZ-145" value="Return Tuple containing a 0 and the original Netflix movie object" style="rounded=1;whiteSpace=wrap;html=1;" parent="1" vertex="1">
          <mxGeometry x="2663" y="1060" width="175" height="50" as="geometry" />
        </mxCell>
        <mxCell id="PEofonqZDYsmdlYJIvpZ-146" value="Return Tuple containing a 1 and the original Netflix movie object" style="rounded=1;whiteSpace=wrap;html=1;" parent="1" vertex="1">
          <mxGeometry x="2885.5" y="1060" width="175" height="50" as="geometry" />
        </mxCell>
        <mxCell id="PEofonqZDYsmdlYJIvpZ-147" value="Return Tuple containing a 2 and the combination of the Netflix movie object and the most matching (ratio &amp;amp; year) movie form database" style="rounded=1;whiteSpace=wrap;html=1;" parent="1" vertex="1">
          <mxGeometry x="3103" y="1060" width="200" height="80" as="geometry" />
        </mxCell>
        <mxCell id="PEofonqZDYsmdlYJIvpZ-150" style="edgeStyle=orthogonalEdgeStyle;rounded=0;orthogonalLoop=1;jettySize=auto;html=1;entryX=0.5;entryY=0;entryDx=0;entryDy=0;" parent="1" source="PEofonqZDYsmdlYJIvpZ-142" target="PEofonqZDYsmdlYJIvpZ-146" edge="1">
          <mxGeometry relative="1" as="geometry" />
        </mxCell>
        <mxCell id="PEofonqZDYsmdlYJIvpZ-154" value="Found multiple&lt;div&gt;matching movies, but&lt;/div&gt;&lt;div&gt;temporal/year&lt;/div&gt;&lt;div&gt;difference is to big&lt;/div&gt;" style="edgeLabel;html=1;align=center;verticalAlign=middle;resizable=0;points=[];" parent="PEofonqZDYsmdlYJIvpZ-150" vertex="1" connectable="0">
          <mxGeometry x="-0.0541" y="1" relative="1" as="geometry">
            <mxPoint x="56" y="-2" as="offset" />
          </mxGeometry>
        </mxCell>
        <mxCell id="PEofonqZDYsmdlYJIvpZ-158" value="" style="endArrow=none;dashed=1;html=1;dashPattern=1 3;strokeWidth=2;rounded=0;" parent="1" edge="1">
          <mxGeometry width="50" height="50" relative="1" as="geometry">
            <mxPoint x="1000" y="1150" as="sourcePoint" />
            <mxPoint x="1000" y="40" as="targetPoint" />
          </mxGeometry>
        </mxCell>
      </root>
    </mxGraphModel>
  </diagram>
</mxfile>
